<?xml version="1.0" standalone="no"?><!DOCTYPE svg PUBLIC "-//W3C//DTD SVG 1.1//EN" "http://www.w3.org/Graphics/SVG/1.1/DTD/svg11.dtd"><svg t="1578446257680" class="icon" viewBox="0 0 1024 1024" version="1.1" xmlns="http://www.w3.org/2000/svg" p-id="5790" xmlns:xlink="http://www.w3.org/1999/xlink" width="200" height="200"><defs><style type="text/css"></style></defs><path d="M508.280113 1023.980001c-267.421907 0-484.985323-219.323362-484.985323-488.885205 0-16.649496 13.389595-30.149088 29.909095-30.149088s29.909095 13.489592 29.909095 30.149088c0 236.312848 190.734228 428.587029 425.167133 428.587029 234.442905 0 425.167133-192.274181 425.167132-428.587029s-190.714228-428.587029-425.167132-428.587029c-108.806707 0-212.323574 41.408747-291.501179 116.576472-11.999637 11.429654-30.949063 10.849672-42.26872-1.279962-11.319657-12.109634-10.759674-31.199056 1.269961-42.60871C266.087442 93.428163 384.173868 46.209592 508.280113 46.209592c267.431907 0 484.985323 219.313363 484.985322 488.875204s-217.553416 488.895204-484.985322 488.895205z" fill="#999999" p-id="5791"></path><path d="M195.229587 229.99403c-5.349838 0-10.769674-1.439956-15.659526-4.479865-14.069574-8.729736-18.439442-27.309174-9.779704-41.478745L273.487218 14.330556c8.669738-14.169571 27.09918-18.569438 41.148755-9.859701 14.069574 8.729736 18.439442 27.309174 9.779704 41.478744l-103.696862 169.704865a29.809098 29.809098 0 0 1-25.489228 14.339566z" fill="#999999" p-id="5792"></path><path d="M634.076306 523.215156H383.543888c-17.469471 0-31.569045-14.099573-31.569045-31.569045s14.099573-31.569045 31.569045-31.569045h250.532418c17.469471 0 31.569045 14.099573 31.569044 31.569045s-14.19957 31.569045-31.569044 31.569045z m-1.049969 107.326751H382.493919c-17.469471 0-31.569045-14.099573-31.569044-31.569044 0-17.459472 14.099573-31.569045 31.569044-31.569045h250.532418c17.459472 0 31.569045 14.099573 31.569045 31.569045s-14.109573 31.569045-31.569045 31.569044zM507.70013 753.128198c-17.469471 0-31.569045-14.099573-31.569044-31.569045V491.656111c0-17.469471 14.099573-31.569045 31.569044-31.569045s31.569045 14.099573 31.569045 31.569045v229.903042c0 17.369474-14.099573 31.569045-31.569045 31.569045z m1.159965-255.172278c-8.309749 0-16.629497-3.259901-22.829309-9.779704l-120.896341-126.796163c-11.999637-12.619618-11.56965-32.619013 1.049968-44.60865 12.629618-11.999637 32.619013-11.57965 44.61865 1.049969l120.896341 126.796162c11.999637 12.629618 11.57965 32.619013-1.049968 44.61865-6.109815 5.879822-13.899579 8.719736-21.789341 8.719736z m-1.679949-0.939972c-7.999758 0-16.099513-3.049908-22.209328-9.159722-12.409624-12.309627-12.519621-32.199026-0.209994-44.60865l126.476173-127.846131c12.309627-12.419624 32.309022-12.529621 44.618649-0.209994 12.409624 12.309627 12.519621 32.199026 0.209994 44.60865L529.589468 487.646232c-6.099815 6.319809-14.19957 9.369716-22.409322 9.369716z m0 0" fill="#999999"></path></svg>
