<?xml version="1.0" standalone="no"?><!DOCTYPE svg PUBLIC "-//W3C//DTD SVG 1.1//EN" "http://www.w3.org/Graphics/SVG/1.1/DTD/svg11.dtd"><svg t="1578446119621" class="icon" viewBox="0 0 1024 1024" version="1.1" xmlns="http://www.w3.org/2000/svg" p-id="3271" xmlns:xlink="http://www.w3.org/1999/xlink" width="200" height="200"><defs><style type="text/css"></style></defs><path d="M235.349333 770.218667a162.133333 162.133333 0 0 0-32.085333 53.76l-0.768-0.768A496.981333 496.981333 0 0 1 235.349333 145.066667a17.578667 17.578667 0 1 0-24.832-24.917334 531.029333 531.029333 0 0 0-35.328 726.357334 19.968 19.968 0 0 0 6.4 4.778666 161.194667 161.194667 0 0 0-58.538666 35.328c42.666667-4.864 86.613333-5.632 126.805333 11.178667a232.533333 232.533333 0 0 1-14.506667-127.573333z" p-id="3272"></path><path d="M567.637333 83.285333a418.133333 418.133333 0 1 0 420.522667 418.133334 419.84 419.84 0 0 0-420.522667-418.133334z m121.173334 527.274667H598.101333V699.733333a29.696 29.696 0 0 1-59.733333 0V610.56h-88.746667a29.696 29.696 0 1 1 0-59.733333h89.088v-59.733334H449.621333a29.696 29.696 0 1 1 0-59.733333h89.088V413.866667l-111.530666-110.933334a30.378667 30.378667 0 0 1 43.349333-42.666666L571.733333 360.96l95.402667-99.498667a30.122667 30.122667 0 1 1 43.349333 41.728L598.954667 418.730667v14.421333h89.856a29.696 29.696 0 0 1 0 59.733333H598.101333v59.733334h90.709334a29.354667 29.354667 0 1 1 0 58.624z"></path></svg>
