<?xml version="1.0" standalone="no"?><!DOCTYPE svg PUBLIC "-//W3C//DTD SVG 1.1//EN" "http://www.w3.org/Graphics/SVG/1.1/DTD/svg11.dtd"><svg t="1578446236661" class="icon" viewBox="0 0 1024 1024" version="1.1" xmlns="http://www.w3.org/2000/svg" p-id="4837" xmlns:xlink="http://www.w3.org/1999/xlink" width="200" height="200"><defs><style type="text/css"></style></defs><path d="M512 563.2m-163.84 0a16 16 0 1 0 327.68 0 16 16 0 1 0-327.68 0Z" p-id="4838"></path><path d="M358.4 51.2l-92.16 102.4L102.4 153.6C46.08 153.6 0 199.68 0 256l0 614.4c0 56.32 46.08 102.4 102.4 102.4l819.2 0c56.32 0 102.4-46.08 102.4-102.4L1024 256c0-56.32-46.08-102.4-102.4-102.4L757.76 153.6 665.6 51.2 358.4 51.2zM512 819.2c-143.36 0-256-112.64-256-256s112.64-256 256-256 256 112.64 256 256S655.36 819.2 512 819.2z" p-id="4839"></path></svg>