<?xml version="1.0" standalone="no"?><!DOCTYPE svg PUBLIC "-//W3C//DTD SVG 1.1//EN" "http://www.w3.org/Graphics/SVG/1.1/DTD/svg11.dtd"><svg t="1578446170703" class="icon" viewBox="0 0 1024 1024" version="1.1" xmlns="http://www.w3.org/2000/svg" p-id="3881" xmlns:xlink="http://www.w3.org/1999/xlink" width="200" height="200"><defs><style type="text/css"></style></defs><path d="M512 64C264.6 64 64 264.6 64 512s200.6 448 448 448 448-200.6 448-448S759.4 64 512 64z m-33.8 621.2c-2.1 5-5 9.4-8.9 13.1-3.9 3.7-8.3 6.6-13.3 8.9-5 2.2-10.4 3.3-15.9 3.3-5.9 0-11.3-1.2-16.1-3.3-4.9-2.2-9.2-5.1-13.1-8.9-3.9-3.8-6.8-8.1-8.9-13.1-2.1-5-3.1-10.4-3.1-15.9s1-10.9 3.1-15.9 5-9.4 8.9-13.1c3.9-3.7 8.2-6.6 13.1-8.7 4.9-2.1 10.3-3.1 16.1-3.1 5.7 0 10.9 1 15.9 3.1s9.4 4.9 13.3 8.7c3.9 3.7 6.8 8.1 8.9 13.1 2.1 5 3.1 10.4 3.1 15.9 0 5.7-1 10.9-3.1 15.9z m184.5 0.9c-2.2 5-5.1 9.4-8.9 13.1-3.8 3.7-8.2 6.6-13.3 8.9s-10.6 3.3-16.1 3.3c-5.7 0-10.9-1.2-15.9-3.3-5-2.2-9.4-5.1-13.1-8.9-3.7-3.7-6.6-8.1-8.9-13.1-2.2-5-3.3-10.4-3.3-15.9 0-5.7 1.2-10.9 3.3-15.9 2.2-5 5.1-9.4 8.9-13.1 3.7-3.7 8.1-6.6 13.1-8.7 4.9-2.1 10.3-3.1 15.9-3.1 5.7 0 11 1 16.1 3.1 5.1 2.1 9.6 4.9 13.3 8.7 3.7 3.7 6.6 8.1 8.9 13.1 2.2 5 3.3 10.4 3.3 15.9 0.1 5.6-1.1 10.8-3.3 15.9z m67.6-286.4c-0.1 3.7-0.6 6.9-1.6 9.5-0.8 2.6-2.7 8.2-5.5 16.4-2.8 8.3-6 17.4-9.5 27.2-3.6 9.8-7 19.7-10.4 29.4-3.3 9.7-6 17.4-7.7 23-3.9 11.8-8.7 20-14.7 24.6-5.9 4.6-13.2 6.9-21.7 6.9H426.9l6.6 39.9h223.2c14.1 0 21.2 6.1 21.2 18.1 0 5.9-1.4 11-4.2 15.3-2.8 4.3-8.4 6.4-16.6 6.4H425.2c-5.9 0-10.9-1.4-14.9-4s-7.3-6.2-9.9-10.4c-2.6-4.3-4.8-8.9-6.4-13.9-1.6-5-2.9-9.7-3.8-14.1-0.3-1.8-1.2-6.1-2.4-12.9-1.4-6.8-2.9-15.3-4.9-25.4s-4.1-21.6-6.4-34.1c-2.4-12.6-4.7-25.1-7.1-37.9-5.7-29.8-11.9-63-19.1-99.6h-33.2c-4.4 0-8.2-1.2-11.1-3.3-2.9-2.2-5.3-4.9-7.3-8-1.9-3.1-3.2-6.4-4-9.9-0.7-3.6-1.2-6.8-1.2-9.7 0-5.9 2-10.8 6-14.7 4-3.9 9.4-5.8 16.1-5.8H360.4c5.9 0 10.7 0.8 14.1 2.6 3.6 1.8 6.4 4 8.4 6.6 2.1 2.6 3.6 5.4 4.4 8.4 0.8 2.9 1.7 5.4 2.2 7.5 0.6 2.4 1.2 5.7 1.8 9.9 0.6 4.3 1.2 8.7 1.8 13.1 0.8 5.3 1.8 10.9 2.6 16.9l303 0.1c8.3 0 14.7 1.2 19.3 3.3 4.6 2.2 7.9 4.9 9.7 8.2 1.9 3.3 2.9 6.7 2.6 10.4z" fill="" p-id="3882"></path></svg>