<?xml version="1.0" standalone="no"?><!DOCTYPE svg PUBLIC "-//W3C//DTD SVG 1.1//EN" "http://www.w3.org/Graphics/SVG/1.1/DTD/svg11.dtd"><svg t="1578446302390" class="icon" viewBox="0 0 1024 1024" version="1.1" xmlns="http://www.w3.org/2000/svg" p-id="7343" xmlns:xlink="http://www.w3.org/1999/xlink" width="200" height="200"><defs><style type="text/css"></style></defs><path d="M329.705244 875.952356a72.749511 72.749511 0 0 0-72.886044 72.886044 72.749511 72.749511 0 0 0 72.886044 72.886044 72.749511 72.749511 0 0 0 72.886045-72.886044 72.749511 72.749511 0 0 0-72.886045-72.886044zM840.112356 875.952356a72.749511 72.749511 0 0 0-72.886045 72.886044 72.749511 72.749511 0 0 0 72.886045 72.886044 72.749511 72.749511 0 0 0 72.886044-72.886044 72.863289 72.863289 0 0 0-72.886044-72.886044zM912.406756 839.520711h-592.099556c-52.519822 0-98.759111-41.551644-105.016889-94.640355L153.372444 309.725867 118.283378 106.336711c-2.139022-17.8176-18.409244-32.312889-34.087822-32.312889H37.569422A36.363378 36.363378 0 0 1 1.137778 37.546667C1.137778 17.385244 17.385244 1.137778 37.546667 1.137778h46.421333c53.111467 0 99.9424 41.528889 106.404978 94.6176l35.066311 202.592711 62.122667 437.134222c1.956978 16.839111 17.430756 31.152356 32.722488 31.152356h592.099556c20.184178 0 36.431644 16.270222 36.431644 36.431644 0 20.184178-16.247467 36.4544-36.431644 36.4544z" p-id="7344"></path><path d="M365.954844 693.748622a36.204089 36.204089 0 0 1-36.2496-33.700978 36.295111 36.295111 0 0 1 33.678223-39.003022l494.546489-36.431644c18.2272-0.2048 33.518933-14.313244 35.475911-30.560711l57.412266-328.385423c1.365333-12.151467-1.979733-25.668267-9.216-33.905777a22.596267 22.596267 0 0 0-17.430755-8.032711H292.681956a36.363378 36.363378 0 0 1-36.4544-36.431645c0-20.184178 16.452267-36.841244 36.4544-36.841244h631.079822c27.830044 0 53.475556 11.559822 72.112355 32.540444 21.344711 24.075378 30.947556 57.799111 26.851556 93.070222L965.290667 564.610844c-6.280533 51.131733-52.337778 92.660622-104.834845 92.660623l-491.793066 36.2496c-0.978489 0-1.956978 0.2048-2.730667 0.2048z" p-id="7345"></path></svg>