<?xml version="1.0" standalone="no"?><!DOCTYPE svg PUBLIC "-//W3C//DTD SVG 1.1//EN" "http://www.w3.org/Graphics/SVG/1.1/DTD/svg11.dtd"><svg t="1578446304643" class="icon" viewBox="0 0 1071 1024" version="1.1" xmlns="http://www.w3.org/2000/svg" p-id="7463" xmlns:xlink="http://www.w3.org/1999/xlink" width="209.1796875" height="200"><defs><style type="text/css"></style></defs><path d="M329.634701 907.348108 329.634701 907.348108C361.152007 907.348108 386.62563 933.248028 386.62563 965.218835 386.62563 997.194166 361.121956 1023.089562 329.634701 1023.089562 298.153012 1023.089562 272.649338 997.194166 272.649338 965.218835 272.649338 933.248028 298.153012 907.348108 329.634701 907.348108L329.634701 907.348108ZM853.54975 909.022734 853.54975 909.022734C884.149625 909.022734 908.886109 934.173175 908.886109 965.218835 908.886109 996.268888 884.124765 1021.41494 853.54975 1021.41494 822.974734 1021.41494 798.21339 996.268888 798.21339 965.218835 798.21339 934.173175 822.974734 909.022734 853.54975 909.022734L853.54975 909.022734ZM296.961088 705.031796 273.9794 708.477705C273.9794 708.477705 265.604907 780.967652 319.984428 780.967652L930.792941 780.967652C951.486278 780.967652 964.465445 791.904894 964.465445 812.919734 964.465445 833.934578 951.486306 842.856895 930.792969 842.856895L319.98444 842.856895C266.056928 842.856895 230.961284 802.645057 224.377306 747.352688L112.435661 86.916909C110.232718 68.407934 95.092045 45.263081 78.813365 45.263081L31.388874 45.263081C10.688229 45.263081 0 36.380618 0 24.474023 0 12.567427 3.815948 0 27.264821 0 50.713694 0 77.336219 0 77.336219 0 159.153072 0 163.806957 108.096426 163.806957 108.096426L939.689142 111.737832C965.43818 113.432534 986.298694 122.349666 1003.748864 141.564581 1021.199034 160.779496 1035.948195 196.133974 1034.592433 222.91026 1032.558792 252.737009 976.633637 563.206372 976.633637 563.206372 972.227412 614.386362 930.792951 665.566352 873.595778 668.616816L296.961088 705.031796Z" p-id="7464"></path></svg>