<?xml version="1.0" standalone="no"?><!DOCTYPE svg PUBLIC "-//W3C//DTD SVG 1.1//EN" "http://www.w3.org/Graphics/SVG/1.1/DTD/svg11.dtd"><svg t="1578446243806" class="icon" viewBox="0 0 1050 1024" version="1.1" xmlns="http://www.w3.org/2000/svg" p-id="5195" xmlns:xlink="http://www.w3.org/1999/xlink" width="205.078125" height="200"><defs><style type="text/css"></style></defs><path d="M563.981844 551.585591c-10.94694 10.94694-25.294299 16.421811-39.644461 16.421811s-28.697521-5.474871-39.644461-16.421811c-21.896683-21.896683-21.896683-57.395043 0-79.288922L897.685492 59.304099a139.728363 139.728363 0 0 0-51.188506-9.685448H202.180584c-77.410702 0-140.16568 62.754978-140.16568 140.16568v644.313599c0 77.410702 62.754978 140.16568 140.16568 140.16568h644.316402c77.410702 0 140.16568-62.754978 140.16568-140.16568V189.781528a139.764806 139.764806 0 0 0-9.685448-51.188507L563.981844 551.585591z" p-id="5196"></path></svg>