<?xml version="1.0" standalone="no"?><!DOCTYPE svg PUBLIC "-//W3C//DTD SVG 1.1//EN" "http://www.w3.org/Graphics/SVG/1.1/DTD/svg11.dtd"><svg t="1578446203650" class="icon" viewBox="0 0 1024 1024" version="1.1" xmlns="http://www.w3.org/2000/svg" p-id="4122" xmlns:xlink="http://www.w3.org/1999/xlink" width="200" height="200"><defs><style type="text/css"></style></defs><path d="M909.710254 494.392752a68.494203 68.494203 0 0 1 68.66487 68.351981v392.931446A68.494203 68.494203 0 0 1 909.710254 1023.999716H583.594789V494.392752h326.115465z m-806.712665 0h326.115465V1023.999716H102.969145a68.494203 68.494203 0 0 1-68.66487-68.323537V562.744733A68.494203 68.494203 0 0 1 102.969145 494.364307zM767.374294 67.271092c4.010666 34.503102 4.010666 79.189311-40.362656 79.189312h-162.78751c-44.458654 0-44.458654-35.754657-10.780442-56.149318 24.888882-15.103996 106.23997-57.457762 154.737735-84.30931 42.296877-23.409771 55.153762 26.823104 59.164428 61.269316zM1024 270.079925c-0.085333 34.133324-0.170667 64.312871 0 98.41775 0.028444 37.461323-12.657774 54.75554-62.862205 54.755541H592.270342V214.926163h365.937676c50.801764 0 65.763537 20.96355 65.763538 55.153762zM0.000284 265.727926c0-34.161768 10.979553-50.858653 61.838205-50.830208h372.167008v208.355498H62.8056c-50.261319 0-62.862205-18.858661-62.805316-56.319985V265.784815z m480.540311-174.819507c33.59288 20.479994 33.59288 56.234651-10.751997 56.234651h-162.815954c-44.344877 0-44.344877-44.657765-40.334211-79.160867 4.03911-34.417768 16.867551-84.707532 59.192872-61.29776 48.412431 26.851548 129.820408 69.233759 154.737735 84.223976z" p-id="4123"></path></svg>