<?xml version="1.0" standalone="no"?><!DOCTYPE svg PUBLIC "-//W3C//DTD SVG 1.1//EN" "http://www.w3.org/Graphics/SVG/1.1/DTD/svg11.dtd"><svg t="1578446063419" class="icon" viewBox="0 0 1024 1024" version="1.1" xmlns="http://www.w3.org/2000/svg" p-id="2670" xmlns:xlink="http://www.w3.org/1999/xlink" width="200" height="200"><defs><style type="text/css"></style></defs><path d="M481.63434594 937.68472344c61.90986562 0 131.14169344-19.50801656 205.87091906-58.09817813 59.80844156-30.8507925 96.51392625-72.92836875 112.20009563-128.53142344 15.77760938-55.87991437 7.87822125-117.1886475-6.86052938-169.96214718-22.01499281 32.91834938-49.92108375 55.19919563-70.80323906 66.182985l-78.05662032 41.10814406 8.96279907-87.78226594c11.43590906-111.51768281-72.74379563-244.12664719-151.72412813-348.17166094 11.80420875 183.57991313-85.77228187 249.02376-91.29338719 252.56959407l-79.74233156 51.10980187 7.02224344-94.48108219c1.47827812-19.80858281 0.97027875-36.96033-0.94741875-51.88365468-12.081915 28.48266938-30.14552063 54.05450438-48.00254063 79.28089875-24.44068969 34.60406063-49.73566406 70.38752625-66.41412468 119.7074775-16.63274156 48.89153906-0.99313875 145.14045844 53.84791781 221.66038125 35.09004656 48.93979875 99.309615 107.29112906 205.94034469 107.29113m0 47.30996718c-250.82461688 0-343.73513531-276.12128437-304.60310719-391.48452187 51.14451562-150.95112281 172.79170312-189.14758406 107.09470312-324.42439125 0 0 112.86896062 26.81981906 100.27904625 196.10040094 0 0 148.92928594-95.50978031 14.73790407-426.18171563 30.17007375 74.25678656 324.03069188 340.17829406 300.86084718 566.37849469 0 0 102.79702969-54.05535094 77.57063532-181.74349594 0 0 214.76598563 351.86735531-68.39955563 498.03651281-86.78828062 44.73356531-162.48863156 63.37544344-227.54047312 63.31871625z" p-id="2671"></path></svg>