<?xml version="1.0" standalone="no"?><!DOCTYPE svg PUBLIC "-//W3C//DTD SVG 1.1//EN" "http://www.w3.org/Graphics/SVG/1.1/DTD/svg11.dtd"><svg t="1578446191879" class="icon" viewBox="0 0 1024 1024" version="1.1" xmlns="http://www.w3.org/2000/svg" p-id="4003" xmlns:xlink="http://www.w3.org/1999/xlink" width="200" height="200"><defs><style type="text/css"></style></defs><path d="M383.9960557 667.96597097c-21.74824297 8.07791882-36.66132385 17.39859437-59.03094518 27.96202666l-4.3496486 1.86413512c-8.69929718 3.10689185-18.01997275 6.2137837-27.34064829 8.69929717V971.81999408H729.48242963v-265.32856416c-8.69929718-2.48551348-18.01997275-5.59240533-26.71926993-8.69929717l-4.34964859-1.86413512c-21.74824297-9.32067555-43.49648592-20.50548622-65.86610726-27.96202666-5.59240533-1.86413511-39.7682157-17.39859437-18.01997274-82.02194489h-0.62137836c50.95302637-52.19578311 85.75021511-102.52743111 85.7502151-214.37553778H324.34373215c0 113.09086341 34.17581037 162.80113303 85.12883674 214.37553778 21.74824297 57.78818845-17.39859437 78.91505303-25.47651319 82.02194489zM201.31081482 971.81999408v-242.33756445c-53.43853985 18.01997275-91.96399882 48.46751289-116.81913364 87.61435022-13.67032415 21.12686459-22.9909997 44.73924267-27.34064829 69.59437748-2.48551348 13.04894578-3.72827022 26.09789155-3.72827022 39.14683734v45.36062103H201.31081482v0.62137838z m766.15953066-86.37159349c-4.97102697-24.85513482-14.29170252-48.46751289-27.96202666-69.59437748-24.85513482-38.52545897-64.00197215-68.35162075-118.06189037-86.99297186v242.33756445h149.13080888v-44.73924267c0.62137837-13.04894578 0-27.3406483-3.10689185-41.01097244zM298.24584059 211.87424711C307.56651615 101.89027555 399.53051497 15.51868208 512 15.51868208s204.43348385 86.37159348 213.75415941 196.35556503m-477.83996682 0h528.17161482v60.27370192h-528.17161482v-60.27370192z" p-id="4004"></path></svg>