<?xml version="1.0" standalone="no"?><!DOCTYPE svg PUBLIC "-//W3C//DTD SVG 1.1//EN" "http://www.w3.org/Graphics/SVG/1.1/DTD/svg11.dtd"><svg t="1578446288542" class="icon" viewBox="0 0 1024 1024" version="1.1" xmlns="http://www.w3.org/2000/svg" p-id="6745" xmlns:xlink="http://www.w3.org/1999/xlink" width="200" height="200"><defs><style type="text/css"></style></defs><path d="M512.512 619.9296L322.9696 376.832h-101.0688l290.5088 372.9408v0.2048l0.1024-0.1024 0.1024 0.1024v-0.2048L803.0208 376.832h-101.1712L512.512 619.9296z m0 0" p-id="6746"></path><path d="M512 969.1136h-0.3072c-22.7328-0.1024-44.1344-10.0352-58.88-27.2384L43.6224 462.7456c-33.792-39.5264-33.792-96.9728 0.1024-136.4992l198.656-231.8336c20.48-23.8592 50.176-37.5808 81.5104-37.6832l369.9712-1.6384h0.6144c33.4848 0 65.2288 14.5408 87.04 39.936l195.584 227.4304c37.1712 43.3152 37.0688 108.4416-0.3072 151.6544L570.7776 942.2848a77.776896 77.776896 0 0 1-58.7776 26.8288z m182.4768-822.9888h-0.1024l-370.0736 1.6384c-4.9152 0-9.5232 2.1504-12.8 5.9392l-198.656 231.8336c-4.5056 5.2224-4.5056 12.9024 0 18.1248l399.2576 467.3536 395.9808-456.6016c8.0896-9.3184 8.0896-23.3472 0.1024-32.5632l-195.584-227.4304c-4.5056-5.3248-11.1616-8.2944-18.1248-8.2944z" p-id="6747"></path></svg>