<?xml version="1.0" standalone="no"?><!DOCTYPE svg PUBLIC "-//W3C//DTD SVG 1.1//EN" "http://www.w3.org/Graphics/SVG/1.1/DTD/svg11.dtd"><svg t="1578446263931" class="icon" viewBox="0 0 1620 1024" version="1.1" xmlns="http://www.w3.org/2000/svg" p-id="6030" xmlns:xlink="http://www.w3.org/1999/xlink" width="316.40625" height="200"><defs><style type="text/css"></style></defs><path d="M527.382194 348.519711c-37.235712 0-67.534206 30.293374-67.534206 67.534206 0 37.235712 30.298494 67.539325 67.534206 67.539325 37.245951 0 67.539325-30.303613 67.539325-67.539325 0.00512-37.240832-30.293374-67.534206-67.539325-67.534206z m280.71928 0c-37.240832 0-67.544445 30.293374-67.544445 67.534206 0 37.235712 30.298494 67.539325 67.544445 67.539325 37.240832 0 67.539325-30.303613 67.539326-67.539325 0-37.240832-30.298494-67.534206-67.539326-67.534206z m285.429422 0c-37.235712 0-67.544445 30.293374-67.544445 67.534206 0 37.235712 30.298494 67.539325 67.544445 67.539325 37.235712 0 67.534206-30.303613 67.534205-67.539325 0-37.240832-30.298494-67.534206-67.534205-67.534206z" fill="" p-id="6031"></path><path d="M1269.111639 0H351.806571c-59.6396 0-108.164291 48.524691-108.164291 108.159171v693.010205c0 59.6396 48.524691 108.159171 108.164291 108.159171h338.705211l110.739509 114.671453 118.746749-114.671453h349.108479c59.64472 0 108.154052-48.519571 108.154052-108.159171V108.159171c0.00512-59.6396-48.514452-108.159171-108.148932-108.159171z m-466.72889 959.240682l-92.431396-95.713136H351.806571c-34.389149 0-62.36329-27.974141-62.36329-62.35817V108.159171c0-34.389149 27.974141-62.36329 62.36329-62.36329h917.305068c34.389149 0 62.35817 27.974141 62.35817 62.36329v693.005085c0 34.389149-27.969022 62.36329-62.35817 62.36329h-367.611142l-99.117748 95.713136z" fill="" p-id="6032"></path></svg>