<?xml version="1.0" standalone="no"?><!DOCTYPE svg PUBLIC "-//W3C//DTD SVG 1.1//EN" "http://www.w3.org/Graphics/SVG/1.1/DTD/svg11.dtd"><svg t="1578446260556" class="icon" viewBox="0 0 1024 1024" version="1.1" xmlns="http://www.w3.org/2000/svg" p-id="5911" xmlns:xlink="http://www.w3.org/1999/xlink" width="200" height="200"><defs><style type="text/css"></style></defs><path d="M883.84 164.75648H140.40064c-51.06176 0-93.13792 43.25888-93.13792 96.20992v456.46336c0 52.96128 42.08128 96.20992 93.13792 96.20992h261.44256l66.19136 87.70048a29.8496 29.8496 0 0 0 8.03328 8.27904c19.85536 17.01888 48.69632 12.288 65.24416-8.27904l66.18624-87.70048h276.34176c51.29728 0 92.9024-43.24864 92.9024-96.20992V260.9664c0-52.95104-41.60512-96.20992-92.9024-96.20992zM303.03744 549.36064c-32.62464 0-58.15296-26.4704-58.15296-60.04224 0-33.80224 25.52832-60.27776 58.15296-60.27776 32.61952 0 58.14784 26.47552 58.14784 60.27776 0 33.57184-25.52832 60.04224-58.14784 60.04224z m208.96256 0c-32.384 0-58.14784-26.4704-58.14784-60.04224 0-33.80224 25.76384-60.27776 58.14784-60.27776 32.62464 0 58.14784 26.47552 58.14784 60.27776 0 33.57184-25.5232 60.04224-58.14784 60.04224z m209.2032 0c-32.384 0-57.91744-26.4704-57.91744-60.04224 0-33.80224 25.52832-60.27776 57.91744-60.27776s58.14784 26.47552 58.14784 60.27776c0.00512 33.57184-25.75872 60.04224-58.14784 60.04224z" fill="" p-id="5912"></path></svg>