<?xml version="1.0" standalone="no"?><!DOCTYPE svg PUBLIC "-//W3C//DTD SVG 1.1//EN" "http://www.w3.org/Graphics/SVG/1.1/DTD/svg11.dtd"><svg t="1578445103370" class="icon" viewBox="0 0 1024 1024" version="1.1" xmlns="http://www.w3.org/2000/svg" p-id="2257" xmlns:xlink="http://www.w3.org/1999/xlink" width="200" height="200"><defs><style type="text/css"></style></defs><path d="M341.333333 469.333333 341.333333 256c0-94.122667 76.544-170.666667 170.666667-170.666667s170.666667 76.544 170.666667 170.666667l0 213.333333 85.333333 0c0-61.824 0-165.333333 0-213.333333 0-141.354667-114.645333-256-256-256S256 114.645333 256 256c0 62.293333 0 161.664 0 213.333333L341.333333 469.333333z" p-id="2258"></path><path d="M810.666667 469.333333l0 341.333333c0 79.616-88.917333 128-128 128L341.333333 938.666667c-81.322667 0-128-46.677333-128-128l0-341.333333L810.666667 469.333333M810.666667 384 213.333333 384c-47.104 0-85.333333 38.229333-85.333333 85.333333l0 341.333333c0 128 85.333333 213.333333 213.333333 213.333333l341.333333 0c85.333333 0 213.333333-85.333333 213.333333-213.333333l0-341.333333C896 422.229333 857.770667 384 810.666667 384L810.666667 384z" p-id="2259"></path><path d="M597.333333 640c0-47.104-38.229333-85.333333-85.333333-85.333333s-85.333333 38.229333-85.333333 85.333333c0 40.192 42.666667 85.333333 42.666667 85.333333l0 128 85.333333 0 0-128C554.666667 725.333333 597.333333 680.192 597.333333 640z" p-id="2260"></path></svg>