<?xml version="1.0" standalone="no"?><!DOCTYPE svg PUBLIC "-//W3C//DTD SVG 1.1//EN" "http://www.w3.org/Graphics/SVG/1.1/DTD/svg11.dtd"><svg t="1578301480020" class="icon" viewBox="0 0 1024 1024" version="1.1" xmlns="http://www.w3.org/2000/svg" p-id="2310" xmlns:xlink="http://www.w3.org/1999/xlink" width="200" height="200"><defs><style type="text/css"></style></defs><path d="M831.896135 353.662102l21.470967-72.14806a37.51433 37.51433 0 0 0-10.166526-37.958444l-54.675141-51.749514-17.471895-73.221506c-3.298109-13.759348-14.033593-24.506088-27.792941-27.780661L670.05035 73.319743 618.300835 18.655858a37.52047 37.52047 0 0 0-27.244449-11.733205c-3.570308 0-7.185642 0.504489-10.712972 1.555422l-72.142942 21.482224-72.147036-21.482224a37.381301 37.381301 0 0 0-10.691482-1.555422 37.490794 37.490794 0 0 0-27.255706 11.733205L346.35571 73.319743l-73.221505 17.483151a37.512284 37.512284 0 0 0-27.780661 27.791918l-17.483152 73.210249-54.663884 51.749514c-10.27602 9.717296-14.197322 24.395571-10.165504 37.958444l21.470968 72.148059-21.470968 72.136803a37.546053 37.546053 0 0 0 10.165504 37.968678l54.663884 51.739281 17.483152 73.211272a37.518423 37.518423 0 0 0 27.780661 27.791918l73.221505 17.483151 51.750538 54.664908a37.490794 37.490794 0 0 0 27.255706 11.731159c3.571331 0 7.164152-0.502442 10.691482-1.565655l72.148059-21.470968 72.142943 21.470968a37.108079 37.108079 0 0 0 10.712971 1.565655 37.522517 37.522517 0 0 0 27.24445-11.731159l51.749514-54.664908 73.210249-17.483151a37.549123 37.549123 0 0 0 27.792941-27.791918l17.471895-73.211272 54.664908-51.739281c10.274997-9.727529 14.218811-24.407851 10.175736-37.968678l-21.470967-72.135779zM508.200472 167.618244c103.560427 0 187.516393 83.945733 187.516393 187.511276 0 103.55531-83.955966 187.5123-187.516393 187.5123-103.566567 0-187.501043-83.955966-187.501044-187.5123 0-103.565543 83.9355-187.511276 187.501044-187.511276zM225.108494 678.305344l-87.506831 212.007132s-25.239797 47.115993 30.301059 43.753415c55.518344-3.362577 102.645593-1.686405 102.645593-1.686405l70.657105 68.992189s26.927225 35.339809 47.12725 0c20.178535-35.338786 102.645593-250.720774 102.645593-250.720774s-97.60582 42.065987-161.537771-18.502362c-63.952416-60.580629-104.331998-53.843195-104.331998-53.843195zM798.890482 678.305344l87.506832 212.007132s25.238774 47.115993-30.290826 43.753415c-55.530623-3.362577-102.634337-1.686405-102.634337-1.686405l-70.679618 68.992189s-26.927225 35.339809-47.10576 0c-20.201047-35.338786-102.645593-250.720774-102.645593-250.720774s97.584331 42.065987 161.53777-18.502362c63.93195-60.580629 104.311532-53.843195 104.311532-53.843195z"></path></svg>
