<?xml version="1.0" standalone="no"?><!DOCTYPE svg PUBLIC "-//W3C//DTD SVG 1.1//EN" "http://www.w3.org/Graphics/SVG/1.1/DTD/svg11.dtd"><svg t="1578446255184" class="icon" viewBox="0 0 1024 1024" version="1.1" xmlns="http://www.w3.org/2000/svg" p-id="5671" xmlns:xlink="http://www.w3.org/1999/xlink" width="200" height="200"><defs><style type="text/css"></style></defs><path d="M511.458201 1.083598C228.639153 1.083598 0 229.722751 0 512.541799s228.639153 511.458201 511.458201 511.458201 511.458201-228.639153 511.458201-511.458201S794.277249 1.083598 511.458201 1.083598L511.458201 1.083598zM547.93933 804.752028l-73.323457 0 0-73.323457 73.323457 0L547.93933 804.752028 547.93933 804.752028zM606.814815 555.163316c-36.481129 32.507937-58.875485 53.818695-58.875485 89.938624l0 49.123104-73.323457 0 0-49.123104c0-71.156261 46.23351-111.971781 83.798236-145.202116 38.648325-33.952734 62.126279-57.430688 62.126279-98.246208 0-59.959083-49.123104-109.804586-109.804586-109.804586-59.959083 0-109.804586 49.123104-109.804586 109.804586l0 36.481129L329.052557 438.134744l0-36.481129c0-100.774603 82.353439-182.405644 182.405644-182.405644 100.774603 0 182.405644 82.353439 182.405644 182.405644C693.863845 478.589065 646.185538 521.571781 606.814815 555.163316L606.814815 555.163316zM606.814815 555.163316" p-id="5672"></path></svg>