<?xml version="1.0" standalone="no"?><!DOCTYPE svg PUBLIC "-//W3C//DTD SVG 1.1//EN" "http://www.w3.org/Graphics/SVG/1.1/DTD/svg11.dtd"><svg t="1578446249584" class="icon" viewBox="0 0 1024 1024" version="1.1" xmlns="http://www.w3.org/2000/svg" p-id="5433" xmlns:xlink="http://www.w3.org/1999/xlink" width="200" height="200"><defs><style type="text/css"></style></defs><path d="M905.216 149.504h-43.008s-57.344-2.048-157.696-40.96c-102.4-40.96-167.936-88.064-167.936-88.064L512 0l-26.624 18.432s-65.536 47.104-167.936 88.064c-98.304 38.912-155.648 40.96-157.696 40.96H116.736v430.08C118.784 794.624 471.04 1024 512 1024s393.216-229.376 393.216-444.416v-430.08z m-440.32 552.96l-184.32-153.6 57.344-65.536 118.784 98.304L679.936 327.68l65.536 57.344c0-2.048-280.576 317.44-280.576 317.44z" p-id="5434"></path></svg>