<?xml version="1.0" standalone="no"?><!DOCTYPE svg PUBLIC "-//W3C//DTD SVG 1.1//EN" "http://www.w3.org/Graphics/SVG/1.1/DTD/svg11.dtd"><svg t="1578446214306" class="icon" viewBox="0 0 1024 1024" version="1.1" xmlns="http://www.w3.org/2000/svg" p-id="4241" xmlns:xlink="http://www.w3.org/1999/xlink" width="200" height="200"><defs><style type="text/css"></style></defs><path d="M370.737 696.788s56.63-412.452 465.628-476.897c0 0 12.585 6.444 0 19.334-12.585 12.889-88.092 83.779-88.092 83.779s-12.584 58 50.338 38.667c0 0 151.015-141.78 151.015-154.67 0-12.888 25.169-25.778-25.17-58l-195.06-70.89s-75.507 0-37.753 64.445l75.507 12.89s12.585 6.444 0 12.888c0 0-144.722 12.89-295.737 180.448-163.599 174.003-163.599 348.006-163.599 348.006s31.461 58.002 62.923 0z" p-id="4242"></path><path d="M955.918 535.674c0-19.333-12.584-32.222-31.461-32.222s-31.462 19.333-31.462 32.222V838.57c0 32.223-25.169 58-56.63 58H194.553c-31.461 0-56.63-25.777-56.63-58V232.78c0-32.223 25.169-58.001 56.63-58.001h232.814c18.877 0 31.462-12.89 31.462-32.223 0-19.334-12.585-32.223-31.462-32.223H194.553C131.63 110.333 75 168.334 75 232.78v605.789c0 70.89 56.63 122.447 119.553 122.447h641.812c69.215 0 119.553-58.002 119.553-122.447V535.674z" p-id="4243"></path></svg>