<?xml version="1.0" standalone="no"?><!DOCTYPE svg PUBLIC "-//W3C//DTD SVG 1.1//EN" "http://www.w3.org/Graphics/SVG/1.1/DTD/svg11.dtd"><svg t="1578446165268" class="icon" viewBox="0 0 1024 1024" version="1.1" xmlns="http://www.w3.org/2000/svg" p-id="3758" xmlns:xlink="http://www.w3.org/1999/xlink" width="200" height="200"><defs><style type="text/css"></style></defs><path d="M55.3 594.7V851c0 11 9 20 20 20h3.1c10 0 18.3-7.4 19.8-17.2 8.3-55.3 56.1-97.8 113.7-97.8s105.4 42.4 113.7 97.8c1.5 9.9 9.8 17.2 19.8 17.2H386c11 0 20-9 20-20V407c0-11-9-20-20-20H280c-33.1 0-64.8 13.7-87.5 37.9L71.6 553.7c-10.5 11.1-16.3 25.8-16.3 41zM336 478v144c0 11-9 20-20 20H145.3c-11 0-20-9-20-20v-13.6c0-10.5 4.2-20.7 11.6-28.1l85.9-86.7c22.5-22.8 53.2-35.6 85.3-35.6h7.9c11 0 20 8.9 20 20zM467.3 257v574c0 22.1 17.9 40 40 40h175.1c10 0 18.3-7.4 19.8-17.2 8.3-55.3 56.1-97.8 113.7-97.8 63.5 0 115 51.5 115 115 20.4 0 37-16.6 37-37V257c0-22.1-17.9-40-40-40H507.3c-22.1 0-40 17.9-40 40z" p-id="3759"></path><path d="M213.5 797c-45.4-0.8-82.3 36.1-81.5 81.5 0.8 42.8 35.7 77.7 78.5 78.5 45.4 0.8 82.3-36.1 81.5-81.5-0.8-42.8-35.7-77.7-78.5-78.5zM817.5 797c-45.4-0.8-82.3 36.1-81.5 81.5 0.8 42.8 35.7 77.7 78.5 78.5 45.4 0.8 82.3-36.1 81.5-81.5-0.8-42.8-35.7-77.7-78.5-78.5z" p-id="3760"></path></svg>