<?xml version="1.0" standalone="no"?><!DOCTYPE svg PUBLIC "-//W3C//DTD SVG 1.1//EN" "http://www.w3.org/Graphics/SVG/1.1/DTD/svg11.dtd"><svg t="1578446267078" class="icon" viewBox="0 0 1024 1024" version="1.1" xmlns="http://www.w3.org/2000/svg" p-id="6150" xmlns:xlink="http://www.w3.org/1999/xlink" width="200" height="200"><defs><style type="text/css"></style></defs><path d="M929.536 775.232C927.232 849.2544 866.3168 908.8 791.5776 908.8c-74.7264 0-135.6544-59.5456-137.9456-133.568h-63.9616v-0.7296c-2.944 0.384-5.9008 0.7296-9.0752 0.7296H405.312C403.008 849.2544 342.0928 908.8 267.3536 908.8S131.6992 849.2544 129.408 775.232H102.5664C46.016 775.232 0 723.7888 0 660.5568V242.6752C0 179.4432 46.016 128 102.5664 128H534.144c56.5504 0 102.5664 51.4432 102.5664 114.6752v76.0192h176.8832L1024 548.3904v226.8416h-94.464z m-137.9584 87.2192c50.5728 0 91.7248-41.0496 91.7248-91.5072 0-50.4704-41.152-91.52-91.7248-91.52-50.5728 0-91.712 41.0496-91.712 91.52 0 50.4576 41.1392 91.5072 91.712 91.5072z m-524.224 0c50.5728 0 91.7248-41.0496 91.7248-91.5072 0-50.4704-41.152-91.52-91.7248-91.52-50.5728 0-91.712 41.0496-91.712 91.52 0 50.4576 41.1392 91.5072 91.712 91.5072z m322.9056-619.776c0-37.6704-25.1776-68.3264-56.1152-68.3264H102.5664c-30.9376 0-56.1152 30.656-56.1152 68.3264v417.8816c0 37.6704 25.1776 68.3264 56.1152 68.3264h33.2544c17.8688-55.5136 70.0544-95.808 131.5328-95.808 61.4912 0 113.6768 40.2944 131.5456 95.808h181.696c4.0448 0 5.632-0.7552 5.7728-0.896 1.664-1.6896 2.6624-6.0032 3.3024-11.52V318.6944h0.5888v-76.0192z m387.2896 323.712l-184.4352-201.344H636.7104v295.5136c0 6.2592 0.1024 12.3904 0.192 18.2912 0.2304 14.0416 0.3712 27.2128-0.7808 39.2448v10.7904h23.9232c17.8688-55.5136 70.0544-95.808 131.5328-95.808 61.4912 0 113.6768 40.2944 131.5456 95.808h54.4256V566.3872z" fill="" p-id="6151"></path></svg>