<?xml version="1.0" standalone="no"?><!DOCTYPE svg PUBLIC "-//W3C//DTD SVG 1.1//EN" "http://www.w3.org/Graphics/SVG/1.1/DTD/svg11.dtd"><svg t="1578446282064" class="icon" viewBox="0 0 1024 1024" version="1.1" xmlns="http://www.w3.org/2000/svg" p-id="6507" xmlns:xlink="http://www.w3.org/1999/xlink" width="200" height="200"><defs><style type="text/css"></style></defs><path d="M673.6 600c0 11.2-4.8 20.8-14.4 27.2-8 6.4-19.2 6.4-30.4 3.2l-102.4-41.6-99.2 40c-3.2 1.6-8 1.6-12.8 1.6-6.4 0-12.8-1.6-17.6-4.8-9.6-6.4-14.4-16-14.4-27.2V324.8H64v500.8C64 864 96 896 136 896h753.6c38.4 0 70.4-32 70.4-68.8V323.2H672v276.8zM256 448h-62.4c-17.6 0-32-14.4-32-32s14.4-32 32-32H256c17.6 0 32 14.4 32 32s-14.4 32-32 32zM883.2 128H673.6v128h288v-51.2C960 163.2 924.8 128 883.2 128zM382.4 128h-240C99.2 128 64 163.2 64 204.8V256h318.4V128z" p-id="6508"></path></svg>