<?xml version="1.0" standalone="no"?><!DOCTYPE svg PUBLIC "-//W3C//DTD SVG 1.1//EN" "http://www.w3.org/Graphics/SVG/1.1/DTD/svg11.dtd"><svg t="1578446272285" class="icon" viewBox="0 0 1024 1024" version="1.1" xmlns="http://www.w3.org/2000/svg" p-id="6269" xmlns:xlink="http://www.w3.org/1999/xlink" width="200" height="200"><defs><style type="text/css"></style></defs><path d="M839.01237 897.881093H199.27852c-52.562326-0.180441-95.05607-42.899736-94.974872-95.462062v-566.62837c-0.054132-52.544282 42.43059-95.227489 94.974872-95.416952h639.73385c52.562326 0.171419 95.047048 42.863648 94.974872 95.416952v143.242713a57.704881 57.704881 0 0 1-57.371066 57.704882H673.422097a40.554009 40.554009 0 0 0-40.554009 40.535964v105.73815a40.554009 40.554009 0 0 0 40.472811 40.499877h203.257233a57.587595 57.587595 0 0 1 57.38911 57.704881V802.419031c0.072176 52.571348-42.403524 95.290643-94.974872 95.462062zM694.019383 519.127401a39.516476 39.516476 0 1 0 39.516476-39.886379 39.696916 39.696916 0 0 0-39.516476 39.832247V519.127401z" p-id="6270"></path></svg>